#!OML:ASF F:\VICON\USERDATA\INSTALL\rory3\rory3.ASF
:FULLY-SPECIFIED
:DEGREES
887
root -3.58963 16.1694 8.94314 12.6903 -3.65761 -4.32408
lowerback 0.0328248 -1.45785 7.76801
upperback -3.65245 -1.73666 1.51425
thorax -4.0039 -1.09591 -2.70979
lowerneck -14.755 -3.31653 -9.63111
upperneck 17.7505 -3.94694 7.94797
head 8.29101 -1.74396 3.81389
rclavicle 1.40392e-014 -2.3059e-014
rhumerus -46.2799 3.70878 -81.7894
rradius 49.1276
rwrist 10.5034
rhand -28.4857 -49.9181
rfingers 7.12502
rthumb -1.855 -79.8897
lclavicle 1.40392e-014 -2.3059e-014
lhumerus -41.0174 -6.97254 80.245
lradius 77.1523
lwrist -7.34132
lhand -32.1893 -44.0188
lfingers 7.12502
lthumb -5.43146 -14.1084
rfemur -38.4692 7.30272 27.1885
rtibia 56.131
rfoot -22.3948 -15.2807
rtoes -11.5044
lfemur -66.4005 10.4537 -4.09261
ltibia 114.389
lfoot -17.2615 3.58973
ltoes -13.4798
888
root -3.55025 16.311 8.97937 12.8173 -3.90238 -4.05375
lowerback -0.567926 -1.16582 7.54496
upperback -3.70736 -1.41285 1.29491
thorax -3.68391 -0.923025 -2.84028
lowerneck -14.5364 -3.54237 -9.71409
upperneck 17.9697 -4.3079 8.11332
head 8.36566 -1.90981 3.84579
rclavicle -1.49834e-014 8.74653e-015
rhumerus -46.9717 4.57565 -81.9247
rradius 50.0036
rwrist 9.71357
rhand -28.8565 -49.9158
rfingers 7.12502
rthumb -2.21314 -79.884
lclavicle -1.49834e-014 8.74653e-015
lhumerus -41.2481 -7.81524 80.2934
lradius 78.0866
lwrist -7.61567
lhand -32.2751 -44.1714
lfingers 7.12502
lthumb -5.51431 -14.2632
rfemur -37.4162 7.8971 26.5203
rtibia 54.1291
rfoot -21.1966 -15.3283
rtoes -12.2523
lfemur -65.8524 10.7954 -4.15598
ltibia 113.522
lfoot -17.1464 4.35304
ltoes -13.1023
889
root -3.51201 16.4627 9.01062 12.7394 -4.12151 -3.70075
lowerback -0.832649 -0.929798 7.16168
upperback -3.77296 -1.12996 1.08629
thorax -3.56524 -0.771771 -2.85653
lowerneck -14.178 -3.77107 -9.79135
upperneck 18.1455 -4.66737 8.18821
head 8.39916 -2.08628 3.84599
rclavicle -9.93923e-017 -3.16068e-014
rhumerus -47.5605 5.11217 -81.8986
rradius 50.6625
rwrist 9.38983
rhand -29.1067 -48.8198
rfingers 7.12502
rthumb -2.45478 -78.7855
lclavicle -9.93923e-017 -3.16068e-014
lhumerus -41.5434 -8.67953 80.4104
lradius 79.0554
lwrist -7.24375
lhand -32.7347 -44.3452
lfingers 7.12502
lthumb -5.95807 -14.449
rfemur -36.068 8.52588 25.7973
rtibia 51.946
rfoot -19.6805 -15.4888
rtoes -13.4786
lfemur -65.0124 10.9924 -4.2185
ltibia 112.532
lfoot -17.2174 5.06926
ltoes -11.1111
890
root -3.46818 16.6269 9.03518 12.7752 -4.07196 -3.17094
lowerback -1.1267 -0.798935 6.7638
upperback -4.00112 -0.982349 0.806906
thorax -3.61677 -0.697897 -2.93024
lowerneck -13.4457 -3.95639 -9.92392
upperneck 18.2423 -5.00004 8.32582
head 8.33896 -2.25649 3.88278
rclavicle -1.63252e-014 1.08338e-014
rhumerus -48.333 5.49425 -81.8367
rradius 51.092
rwrist 9.6381
rhand -27.8946 -50.7027
rfingers 7.12502
rthumb -1.28416 -80.6786
lclavicle -1.63252e-014 1.08338e-014
lhumerus -42.0578 -9.50928 80.5511
lradius 79.9547
lwrist -6.48568
lhand -33.0512 -44.4217
lfingers 7.12502
lthumb -6.26361 -14.5344
rfemur -34.8122 8.88037 24.8979
rtibia 49.6062
rfoot -17.9955 -15.5789
rtoes -14.7311
lfemur -64.4057 10.6416 -4.45799
ltibia 111.415
lfoot -17.2233 5.85931
ltoes -9.10054
891
root -3.42119 16.8133 9.06677 12.5998 -4.09943 -2.5593
lowerback -1.25608 -0.68168 6.31619
upperback -4.16513 -0.841667 0.523179
thorax -3.69447 -0.624524 -2.97793
lowerneck -12.8056 -4.10338 -10.0812
upperneck 18.4214 -5.26476 8.42879
head 8.31654 -2.39845 3.92171
rclavicle 1.4971e-014 -4.07509e-015
rhumerus -48.9929 6.04724 -81.8296
rradius 51.1911
rwrist 10.1369
rhand -27.8092 -50.5014
rfingers 7.12502
rthumb -1.20163 -80.4778
lclavicle 1.4971e-014 -4.07509e-015
lhumerus -42.5485 -10.2854 80.7471
lradius 80.441
lwrist -5.67823
lhand -33.2862 -44.3339
lfingers 7.12502
lthumb -6.4905 -14.4534
rfemur -33.2157 9.29024 23.8983
rtibia 47.1132
rfoot -16.2362 -15.4096
rtoes -15.3853
lfemur -63.3393 10.0629 -4.75666
ltibia 110
lfoot -17.1341 6.66292
ltoes -8.06021
892
root -3.37507 17.0081 9.1073 12.1685 -4.46322 -2.11141
lowerback -1.28069 -0.458635 5.89847
upperback -4.11529 -0.55751 0.293649
thorax -3.59441 -0.469181 -2.98935
lowerneck -12.3355 -4.23912 -10.1884
upperneck 18.5384 -5.49324 8.47265
head 8.29808 -2.52141 3.93443
rclavicle -6.1499e-016 2.95195e-014
rhumerus -49.3209 6.69241 -81.869
rradius 51.0448
rwrist 10.604
rhand -27.5009 -50.5693
rfingers 7.12502
rthumb -0.9039 -80.5471
lclavicle -6.1499e-016 2.95195e-014
lhumerus -42.7396 -11.049 80.9562
lradius 80.5845
lwrist -4.77039
lhand -33.7448 -44.568
lfingers 7.12502
lthumb -6.93319 -14.7015
rfemur -31.2637 10.089 23.0549
rtibia 44.597
rfoot -14.2399 -15.0229
rtoes -15.9675
lfemur -61.6083 9.83143 -4.85356
ltibia 108.35
lfoot -17.0829 7.46191
ltoes -7.62779
